<svg width="90" height="41" viewBox="0 0 90 41" fill="none" xmlns="http://www.w3.org/2000/svg">
<path d="M13.8485 23.0098C13.5743 23.0098 13.4372 22.8422 13.4372 22.507C13.4372 22.1719 13.5438 21.8367 13.7571 21.5015C14.0009 21.1664 14.2599 20.9988 14.5341 20.9988C14.6864 20.9683 14.854 20.9531 15.0368 20.9531C15.2501 20.9531 15.5091 20.9378 15.8138 20.9074C16.088 20.9074 16.3318 20.9074 16.5451 20.9074C16.7584 20.9074 16.926 20.8921 17.0478 20.8617H17.0935C17.2764 20.8617 17.383 20.9988 17.4135 21.273C17.5354 21.3949 17.642 21.4558 17.7334 21.4558C20.7804 20.8769 23.8274 19.7648 26.8744 18.1194C28.7939 17.0529 30.2413 15.9103 31.2163 14.6915C32.1913 13.4727 32.6788 12.2692 32.6788 11.0809C32.6788 9.55738 31.8866 8.27765 30.3022 7.24167C28.7178 6.2057 26.5087 5.61154 23.675 5.45919C23.4922 5.42872 23.2637 5.41349 22.9895 5.41349C22.7457 5.41349 22.4562 5.41349 22.1211 5.41349C19.135 5.41349 16.2861 5.88577 13.5743 6.83033C10.8929 7.74443 8.44013 9.0851 6.21584 10.8523C4.02201 12.5891 2.14812 14.6915 0.594161 17.1596C0.472282 17.3424 0.350403 17.4338 0.228523 17.4338C0.0761745 17.4338 0 17.2662 0 16.9311C0 16.3521 0.198054 15.7732 0.594161 15.1943C2.11765 12.8481 4.08295 10.898 6.49006 9.34409C8.89718 7.75966 11.548 6.57134 14.4427 5.77912C17.3678 4.95644 20.3538 4.5451 23.4008 4.5451C25.8079 4.5451 27.956 4.80409 29.8452 5.32208C31.6429 5.84006 33.014 6.5561 33.9586 7.4702C34.9336 8.38429 35.4211 9.42026 35.4211 10.5781C35.4211 11.7969 34.8574 13.0766 33.7301 14.4173C32.6027 15.758 30.9116 17.0529 28.6568 18.3022C27.4685 18.9421 26.1735 19.5515 24.7719 20.1304C23.4008 20.6788 22.0297 21.1816 20.6585 21.6386C19.2874 22.0652 18.0076 22.4004 16.8193 22.6441C15.6615 22.8879 14.6864 23.0098 13.8942 23.0098H13.8485ZM8.36396 33.8418C6.65765 33.8418 5.80449 33.0191 5.80449 31.3737C5.80449 30.9776 5.8502 30.5511 5.94161 30.094C6.36818 27.5345 7.31275 24.9751 8.7753 22.4156C10.2683 19.8562 12.066 17.1596 14.1685 14.3259L15.5853 12.3149C15.6462 12.254 15.6767 12.1625 15.6767 12.0407C15.6767 11.9797 15.6615 11.9036 15.631 11.8121C15.631 11.7207 15.631 11.6598 15.631 11.6293C15.631 11.2332 15.9814 10.8523 16.6822 10.4867C17.0478 9.87731 17.5201 9.42026 18.0991 9.11557C18.678 8.81087 19.2264 8.65852 19.7444 8.65852C20.5366 8.65852 20.9327 8.91751 20.9327 9.4355C20.9327 9.77067 20.7804 10.0906 20.4757 10.3953C20.3538 10.5172 20.1862 10.7 19.9729 10.9438C19.7597 11.157 19.4854 11.4313 19.1503 11.7664C18.1143 12.8329 17.1393 13.8841 16.2252 14.9201C15.3415 15.9256 14.5036 16.9158 13.7114 17.8909V17.8452C10.2378 22.2328 8.08973 26.3158 7.26704 30.094C7.23657 30.2464 7.2061 30.3835 7.17563 30.5054C7.17563 30.6272 7.17563 30.7186 7.17563 30.7796C7.17563 31.3585 7.28228 31.846 7.49557 32.2421C7.70886 32.6687 7.95261 32.8972 8.22684 32.9277C8.4706 32.9582 8.66865 33.0191 8.821 33.1105C8.97335 33.2019 9.08 33.3086 9.14094 33.4305V33.5219C9.14094 33.7351 8.88194 33.8418 8.36396 33.8418Z" fill="#8D541F"/>
<path d="M31.4462 31.6937C30.2579 31.6937 29.6638 31.1605 29.6638 30.094C29.6638 30.0331 29.6638 29.9264 29.6638 29.7741C29.6942 29.6217 29.7247 29.4389 29.7552 29.2256C30.0599 27.9764 30.6693 26.7728 31.5834 25.615C32.5279 24.4266 33.6096 23.3907 34.8284 22.507C35.2854 22.1414 36.0167 21.9586 37.0222 21.9586C37.6011 21.9586 38.1039 22.05 38.5305 22.2328C38.9875 22.3852 39.3074 22.6289 39.4903 22.9641C39.6731 23.2688 39.7645 23.6192 39.7645 24.0153C39.7645 24.0762 39.7493 24.1676 39.7188 24.2895C39.7188 24.4114 39.7036 24.5485 39.6731 24.7009C39.734 24.6704 39.8254 24.6552 39.9473 24.6552C40.0997 24.6552 40.2825 24.6399 40.4958 24.6095C40.7091 24.579 40.9071 24.5485 41.0899 24.518C41.3032 24.4876 41.5165 24.4723 41.7298 24.4723H41.9126C42.2478 24.4723 42.2783 24.6094 42.004 24.8837C41.7603 25.1274 41.4251 25.2798 40.9985 25.3407L39.4446 25.5235C39.1399 26.3767 38.6066 27.2299 37.8449 28.083C37.1136 28.9362 36.2909 29.6827 35.3768 30.3225C34.4932 30.9319 33.6553 31.328 32.8631 31.5109C32.406 31.6327 31.9338 31.6937 31.4462 31.6937ZM37.2964 24.8837C37.4793 24.8837 37.6926 24.8837 37.9363 24.8837C38.2105 24.8532 38.5152 24.8227 38.8504 24.7923C38.8809 24.7313 38.8961 24.5942 38.8961 24.3809C38.8961 23.8325 38.6676 23.4516 38.2105 23.2383C37.9668 23.086 37.6621 23.0098 37.2964 23.0098C36.8394 23.0098 36.3671 23.1621 35.8796 23.4668C35.4226 23.7411 34.935 24.1067 34.417 24.5637C35.0569 24.777 36.0167 24.8837 37.2964 24.8837ZM32.8174 30.094C33.1221 30.094 33.5487 29.9569 34.0971 29.6827C34.676 29.378 35.2702 28.9819 35.8796 28.4943C36.489 28.0068 37.0374 27.4888 37.525 26.9404C37.6773 26.788 37.8297 26.6052 37.982 26.3919C38.1344 26.1482 38.3019 25.9044 38.4848 25.6607L37.3879 25.7978C35.6815 26.0415 34.1581 26.1786 32.8174 26.2091C32.147 27.306 31.7357 28.2201 31.5834 28.9514C31.5529 29.3475 31.6595 29.637 31.9033 29.8198C32.147 30.0026 32.4517 30.094 32.8174 30.094Z" fill="#8D541F"/>
<path d="M41.1963 35.1672C41.044 35.1672 40.9678 35.0301 40.9678 34.7559C40.9678 34.6949 40.9678 34.6035 40.9678 34.4817C40.9983 34.3903 41.0288 34.2836 41.0592 34.1617L43.0245 29.2256L45.3555 23.4668C44.9898 23.4364 44.4566 23.4516 43.7558 23.5125C43.055 23.543 42.4608 23.6039 41.9733 23.6954C41.7905 23.7258 41.6381 23.7563 41.5163 23.7868C41.4249 23.7868 41.3487 23.7868 41.2877 23.7868C41.044 23.7868 40.8764 23.6801 40.785 23.4668C40.8155 23.284 40.983 23.1164 41.2877 22.9641C41.4401 22.9031 41.6229 22.8574 41.8362 22.827C42.0495 22.766 42.3085 22.7051 42.6132 22.6441C42.9483 22.5832 43.2378 22.5375 43.4816 22.507C43.7558 22.4766 43.9539 22.4461 44.0757 22.4156C44.2281 22.3852 44.3804 22.3547 44.5328 22.3242C44.6851 22.2937 44.8679 22.2633 45.0812 22.2328C45.2641 22.2023 45.4621 22.1719 45.6754 22.1414C45.8887 22.1109 46.1172 22.0652 46.361 22.0043C46.6047 21.6691 46.9704 21.075 47.4579 20.2218C47.9454 19.3686 48.57 18.2413 49.3318 16.8397C49.9412 15.7123 50.4287 14.8286 50.7943 14.1888C51.1904 13.5184 51.4647 13.0766 51.617 12.8633C51.8912 12.4977 52.2112 12.3149 52.5768 12.3149C52.7596 12.3149 52.851 12.3911 52.851 12.5434C52.851 12.5739 52.7749 12.7719 52.6225 13.1376C52.4397 13.4423 52.135 14.006 51.7084 14.8286C51.2818 15.6513 50.8248 16.5502 50.3373 17.5252C49.8498 18.5003 49.4079 19.4144 49.0118 20.2675C48.6157 21.1207 48.3415 21.7453 48.1892 22.1414C48.3415 22.1109 48.5091 22.0957 48.6919 22.0957C48.9052 22.0957 49.1642 22.0957 49.4689 22.0957C49.8041 22.0957 50.1087 22.1109 50.383 22.1414C50.6877 22.1414 50.9467 22.1566 51.16 22.1871C51.5865 22.2785 51.7998 22.4004 51.7998 22.5527C51.7998 22.6137 51.6627 22.7203 51.3885 22.8727C51.2361 22.9336 50.9467 22.9946 50.5201 23.0555C50.0935 23.1164 49.5298 23.1774 48.829 23.2383C48.6462 23.2383 48.4481 23.2535 48.2349 23.284C48.0216 23.284 47.793 23.2992 47.5493 23.3297C46.6352 24.8227 45.3859 27.306 43.8015 30.7796C43.2226 31.9374 42.7808 32.8363 42.4761 33.4762C42.1714 34.116 41.9885 34.4969 41.9276 34.6188C41.6534 34.9844 41.4096 35.1672 41.1963 35.1672Z" fill="#8D541F"/>
<path d="M50.4355 35.1672C50.2831 35.1672 50.2069 35.0301 50.2069 34.7559C50.2069 34.6949 50.2069 34.6035 50.2069 34.4817C50.2374 34.3903 50.2679 34.2836 50.2984 34.1617L52.2637 29.2256L54.5946 23.4668C54.229 23.4364 53.6957 23.4516 52.9949 23.5125C52.2941 23.543 51.7 23.6039 51.2124 23.6954C51.0296 23.7258 50.8773 23.7563 50.7554 23.7868C50.664 23.7868 50.5878 23.7868 50.5269 23.7868C50.2831 23.7868 50.1155 23.6801 50.0241 23.4668C50.0546 23.284 50.2222 23.1164 50.5269 22.9641C50.6792 22.9031 50.862 22.8574 51.0753 22.827C51.2886 22.766 51.5476 22.7051 51.8523 22.6441C52.1875 22.5832 52.4769 22.5375 52.7207 22.507C52.9949 22.4766 53.193 22.4461 53.3149 22.4156C53.4672 22.3852 53.6196 22.3547 53.7719 22.3242C53.9243 22.2937 54.1071 22.2633 54.3204 22.2328C54.5032 22.2023 54.7012 22.1719 54.9145 22.1414C55.1278 22.1109 55.3563 22.0652 55.6001 22.0043C55.8439 21.6691 56.2095 21.075 56.697 20.2218C57.1845 19.3686 57.8092 18.2413 58.5709 16.8397C59.1803 15.7123 59.6678 14.8286 60.0334 14.1888C60.4296 13.5184 60.7038 13.0766 60.8561 12.8633C61.1304 12.4977 61.4503 12.3149 61.8159 12.3149C61.9987 12.3149 62.0902 12.3911 62.0902 12.5434C62.0902 12.5739 62.014 12.7719 61.8616 13.1376C61.6788 13.4423 61.3741 14.006 60.9475 14.8286C60.521 15.6513 60.0639 16.5502 59.5764 17.5252C59.0889 18.5003 58.6471 19.4144 58.251 20.2675C57.8549 21.1207 57.5806 21.7453 57.4283 22.1414C57.5806 22.1109 57.7482 22.0957 57.931 22.0957C58.1443 22.0957 58.4033 22.0957 58.708 22.0957C59.0432 22.0957 59.3479 22.1109 59.6221 22.1414C59.9268 22.1414 60.1858 22.1566 60.3991 22.1871C60.8257 22.2785 61.039 22.4004 61.039 22.5527C61.039 22.6137 60.9018 22.7203 60.6276 22.8727C60.4753 22.9336 60.1858 22.9946 59.7592 23.0555C59.3326 23.1164 58.769 23.1774 58.0681 23.2383C57.8853 23.2383 57.6873 23.2535 57.474 23.284C57.2607 23.284 57.0322 23.2992 56.7884 23.3297C55.8743 24.8227 54.6251 27.306 53.0406 30.7796C52.4617 31.9374 52.0199 32.8363 51.7152 33.4762C51.4105 34.116 51.2277 34.4969 51.1667 34.6188C50.8925 34.9844 50.6488 35.1672 50.4355 35.1672Z" fill="#8D541F"/>
<path d="M61.8227 31.4194C61.1828 31.4194 60.6192 31.2519 60.1316 30.9167C59.3394 30.3073 58.9433 29.3932 58.9433 28.1744C58.9433 26.9556 59.3699 25.6607 60.2231 24.2895C61.0762 22.9184 62.3712 21.6539 64.1079 20.496C64.4126 20.2827 64.824 20.1761 65.342 20.1761C66.0123 20.1761 66.6065 20.3589 67.1245 20.7246C67.6729 21.0902 67.8862 21.5625 67.7643 22.1414C67.551 23.086 67.0787 23.9239 66.3475 24.6552C65.6467 25.3864 64.8088 26.0415 63.8337 26.6205C62.8892 27.1689 61.9141 27.7021 60.9086 28.2201C60.8781 28.3115 60.8477 28.4029 60.8172 28.4943C60.8172 28.5858 60.8172 28.6772 60.8172 28.7686C60.8172 29.1952 60.9543 29.576 61.2286 29.9112C61.5332 30.2159 61.9446 30.3682 62.4626 30.3682C62.8587 30.3682 63.1939 30.3073 63.4681 30.1854C63.9556 30.0026 64.3517 29.835 64.6564 29.6827C64.9916 29.5303 65.3724 29.3018 65.799 28.9971C66.2256 28.6924 66.8045 28.2354 67.5358 27.626C67.871 27.3822 68.069 27.2603 68.13 27.2603C68.3128 27.2603 68.3737 27.3974 68.3128 27.6717C68.0081 28.1592 67.4749 28.6924 66.7131 29.2713C65.9818 29.8503 65.1592 30.353 64.2451 30.7796C63.3614 31.2062 62.554 31.4194 61.8227 31.4194ZM61.1828 26.9861C61.4266 26.9861 61.9294 26.7423 62.6911 26.2548C63.4528 25.7673 64.1689 25.2341 64.8392 24.6552C65.9971 23.5887 66.576 22.766 66.576 22.1871C66.576 22.0348 66.5303 21.8976 66.4389 21.7758C66.3475 21.6234 66.2104 21.5472 66.0275 21.5472C65.4486 21.5472 64.4736 22.2328 63.1024 23.6039C62.1579 24.518 61.518 25.6454 61.1828 26.9861Z" fill="#8D541F"/>
<path d="M68.2781 31.8765C67.882 31.8765 67.684 31.5261 67.684 30.8253C67.684 30.2464 67.8211 29.6827 68.0953 29.1342C68.7961 27.7935 69.436 26.4681 70.0149 25.1579C70.411 24.3657 70.7767 23.6039 71.1118 22.8727C71.4775 22.1414 71.8126 21.4711 72.1173 20.8617C72.3002 20.6788 72.483 20.5874 72.6658 20.5874C73.0619 20.5874 73.1838 20.7703 73.0314 21.1359C72.9705 21.3492 72.8791 21.6082 72.7572 21.9129C72.6658 22.1871 72.5439 22.5223 72.3916 22.9184C71.904 24.1981 71.6146 25.097 71.5232 25.615C72.3763 24.8532 73.2447 24.1524 74.1283 23.5125C75.0424 22.8422 75.8956 22.2937 76.6878 21.8672C77.48 21.4406 78.1504 21.2273 78.6988 21.2273C79.1863 21.2273 79.4301 21.4254 79.4301 21.8215C79.4301 22.1566 79.2777 22.5223 78.973 22.9184C78.6683 23.284 78.3636 23.4668 78.0589 23.4668C77.9066 23.4668 77.7847 23.4211 77.6933 23.3297C77.6019 23.2992 77.4191 23.284 77.1448 23.284C76.1698 23.284 75.1491 23.7563 74.0826 24.7009C72.9553 25.6454 71.9345 26.788 71.0204 28.1287C70.1063 29.4389 69.436 30.5815 69.0094 31.5566C68.7961 31.7698 68.5524 31.8765 68.2781 31.8765Z" fill="#8D541F"/>
<path d="M77.5683 40.2862C76.898 40.2862 76.3495 39.9815 75.923 39.3721C75.4964 38.7627 75.2831 38.0466 75.2831 37.2239C75.2831 36.7669 75.3593 36.3556 75.5116 35.9899C75.7554 35.4719 75.9534 35.2129 76.1058 35.2129C76.2277 35.2129 76.2886 35.3043 76.2886 35.4872C76.2886 35.6395 76.2429 35.8376 76.1515 36.0813C76.121 36.1727 76.1058 36.2489 76.1058 36.3098C76.0753 36.4013 76.0601 36.4774 76.0601 36.5384C76.0601 37.0868 76.2124 37.6505 76.5171 38.2294C76.8523 38.8084 77.2636 39.0978 77.7511 39.0978L78.1168 39.0064C78.8481 38.8236 79.5336 38.4123 80.1735 37.7724C80.8438 37.163 81.4989 36.4013 82.1388 35.4872C82.992 34.2379 83.7537 32.882 84.424 31.4194C85.0944 29.9874 85.6733 28.5553 86.1608 27.1232C86.6483 25.6911 87.014 24.3962 87.2577 23.2383C87.2577 23.086 87.1968 23.0098 87.0749 23.0098C86.8616 23.0098 86.5264 23.2535 86.0694 23.7411C85.7038 24.1372 85.2315 24.6856 84.6526 25.3864C84.0736 26.0872 83.3576 26.9252 82.5044 27.9002L81.7732 28.7686C81.2856 29.3475 80.7829 29.7741 80.2649 30.0483C79.7774 30.2921 79.3203 30.4139 78.8938 30.4139C78.5281 30.4139 78.2234 30.3378 77.9797 30.1854C77.675 29.9721 77.5226 29.5913 77.5226 29.0428C77.5226 28.1592 77.934 26.6966 78.7567 24.6552L79.3508 23.1926C79.6555 22.4918 79.9145 21.8519 80.1278 21.273C80.3715 20.6941 80.6001 20.1609 80.8134 19.6733C81.0266 19.2772 81.2704 19.0792 81.5446 19.0792C81.8798 19.0792 81.9407 19.2772 81.7275 19.6733C80.6305 22.1719 79.9907 24.1372 79.8079 25.5692C79.7774 25.6302 79.7622 25.7216 79.7622 25.8435C79.7622 25.9349 79.7622 26.0415 79.7622 26.1634C79.7622 26.8337 80.0364 27.1689 80.5848 27.1689C80.9505 27.1689 81.4685 26.9556 82.1388 26.529C82.8091 26.0415 83.6471 25.2798 84.6526 24.2438C85.6581 23.1774 86.8616 21.8367 88.2632 20.2218C88.507 19.978 88.7355 19.7343 88.9488 19.4905C89.1621 19.2468 89.3601 19.0182 89.543 18.805C89.6648 18.6831 89.7715 18.6221 89.8629 18.6221C89.9543 18.6221 90 18.7593 90 19.0335C90 19.3077 89.9543 19.6581 89.8629 20.0847C89.7715 20.4808 89.7258 20.7246 89.7258 20.816C89.3601 23.0403 88.6898 25.4321 87.7148 27.9916C86.7093 30.5206 85.4295 32.8668 83.8756 35.0301C82.3521 37.1935 80.6458 38.8236 78.7567 39.9205C78.3605 40.1643 77.9644 40.2862 77.5683 40.2862Z" fill="#8D541F"/>
<path d="M49.405 6.18888C49.1593 6.54881 48.8365 6.82303 48.4366 7.01157C48.0424 7.2001 47.6139 7.29436 47.1512 7.29436C46.4313 7.29436 45.8286 7.05727 45.343 6.58309C44.8631 6.1089 44.6231 5.52902 44.6231 4.84345C44.6231 4.15788 44.8659 3.57229 45.3515 3.08668C45.8371 2.59535 46.4656 2.34969 47.2369 2.34969C47.6939 2.34969 48.1138 2.44967 48.4966 2.64963C48.8851 2.84958 49.1879 3.12953 49.405 3.48945L48.8479 3.8408C48.4309 3.29806 47.8853 3.02669 47.2111 3.02669C46.6798 3.02669 46.2342 3.19808 45.8743 3.54087C45.5144 3.87794 45.3344 4.29785 45.3344 4.8006C45.3344 5.30335 45.5115 5.73469 45.8657 6.09462C46.2199 6.45454 46.6684 6.6345 47.2111 6.6345C47.8624 6.6345 48.4109 6.36027 48.8565 5.81182L49.405 6.18888Z" fill="#8D541F"/>
<path d="M51.0029 7.14011H50.3002V0.712891H51.0029V7.14011Z" fill="#8D541F"/>
<path d="M56.1292 7.14011H55.4179V6.4374C54.9551 6.98586 54.4067 7.26009 53.7725 7.26009C53.4355 7.26009 53.1298 7.17439 52.8556 7.003C52.5814 6.82589 52.3757 6.58594 52.2386 6.28315C52.1015 5.97464 52.0329 5.50331 52.0329 4.86916V2.46966H52.7356V4.69777C52.7356 5.21194 52.7585 5.5633 52.8042 5.75183C52.8556 5.93465 52.927 6.09176 53.0184 6.22316C53.1155 6.34885 53.2355 6.44311 53.3783 6.50596C53.5269 6.5688 53.704 6.60022 53.9096 6.60022C54.121 6.60022 54.3267 6.54881 54.5267 6.44597C54.7266 6.34314 54.898 6.20031 55.0408 6.01749C55.1837 5.83467 55.2808 5.64043 55.3322 5.43476C55.3893 5.22908 55.4179 4.81774 55.4179 4.20073V2.46966H56.1292V7.14011Z" fill="#8D541F"/>
<path d="M58.0522 3.15523C58.5378 2.6182 59.1205 2.34969 59.8004 2.34969C60.4803 2.34969 61.0516 2.5925 61.5143 3.07811C61.9828 3.55801 62.217 4.13788 62.217 4.81774C62.217 5.4976 61.9799 6.08033 61.5058 6.56595C61.0316 7.05156 60.4574 7.29436 59.7833 7.29436C59.1148 7.29436 58.5378 7.003 58.0522 6.42026V7.14011H57.358V0.712891H58.0522V3.15523ZM59.7575 6.60879C60.2432 6.60879 60.6545 6.42883 60.9916 6.06891C61.3344 5.70898 61.5058 5.28907 61.5058 4.80917C61.5058 4.32356 61.3401 3.90079 61.0087 3.54087C60.6773 3.18094 60.2632 3.00098 59.7661 3.00098C59.2691 3.00098 58.852 3.16952 58.5149 3.50659C58.1836 3.84366 58.0179 4.26929 58.0179 4.78346C58.0179 5.29193 58.1864 5.72327 58.5235 6.07748C58.8606 6.43169 59.2719 6.60879 59.7575 6.60879Z" fill="#8D541F"/>
</svg>
