<svg width="88" height="38" viewBox="0 0 88 38" fill="none" xmlns="http://www.w3.org/2000/svg">
<path d="M14.087 21.4105C13.8237 21.4105 13.692 21.2495 13.692 20.9277C13.692 20.6059 13.7944 20.284 13.9992 19.9622C14.2333 19.6403 14.482 19.4794 14.7453 19.4794C14.8916 19.4502 15.0526 19.4355 15.2281 19.4355C15.4329 19.4355 15.6816 19.4209 15.9742 19.3916C16.2375 19.3916 16.4716 19.3916 16.6764 19.3916C16.8812 19.3916 17.0421 19.377 17.1592 19.3477H17.203C17.3786 19.3477 17.481 19.4794 17.5103 19.7427C17.6273 19.8598 17.7297 19.9183 17.8175 19.9183C20.7433 19.3624 23.6692 18.2944 26.595 16.7145C28.4383 15.6904 29.8281 14.5933 30.7643 13.4229C31.7006 12.2526 32.1687 11.0969 32.1687 9.95579C32.1687 8.49287 31.408 7.26401 29.8866 6.26923C28.3651 5.27444 26.2439 4.7039 23.5229 4.55761C23.3473 4.52835 23.1279 4.51372 22.8646 4.51372C22.6305 4.51372 22.3525 4.51372 22.0307 4.51372C19.1634 4.51372 16.4277 4.96723 13.8237 5.87424C11.249 6.75199 8.89365 8.03936 6.75778 9.73635C4.65118 11.4041 2.85178 13.4229 1.3596 15.7928C1.24257 15.9684 1.12553 16.0562 1.0085 16.0562C0.862209 16.0562 0.789062 15.8953 0.789062 15.5734C0.789062 15.0175 0.979242 14.4616 1.3596 13.9057C2.82252 11.6528 4.70969 9.78024 7.02111 8.28806C9.33253 6.76662 11.878 5.62554 14.6576 4.86482C17.4664 4.07484 20.3337 3.67985 23.2595 3.67985C25.571 3.67985 27.6337 3.92855 29.4477 4.42595C31.1739 4.92334 32.4906 5.61091 33.3976 6.48867C34.3339 7.36642 34.802 8.36121 34.802 9.47303C34.802 10.6434 34.2607 11.8722 33.1782 13.1596C32.0956 14.447 30.4717 15.6904 28.3066 16.89C27.1655 17.5045 25.9221 18.0896 24.5762 18.6455C23.2595 19.1722 21.9429 19.655 20.6263 20.0938C19.3097 20.5035 18.0808 20.8253 16.9397 21.0594C15.8279 21.2934 14.8916 21.4105 14.1309 21.4105H14.087ZM8.8205 31.8118C7.18203 31.8118 6.36279 31.0219 6.36279 29.4419C6.36279 29.0615 6.40668 28.6519 6.49446 28.2131C6.90408 25.7553 7.81109 23.2976 9.21549 20.8399C10.6492 18.3822 12.3754 15.7928 14.3942 13.0718L15.7548 11.1408C15.8133 11.0822 15.8425 10.9945 15.8425 10.8774C15.8425 10.8189 15.8279 10.7458 15.7986 10.658C15.7986 10.5702 15.7986 10.5117 15.7986 10.4824C15.7986 10.1021 16.1351 9.73635 16.8081 9.38525C17.1592 8.80008 17.6127 8.36121 18.1686 8.06862C18.7245 7.77604 19.2511 7.62974 19.7485 7.62974C20.5092 7.62974 20.8896 7.87844 20.8896 8.37583C20.8896 8.69768 20.7433 9.00489 20.4507 9.29747C20.3337 9.41451 20.1728 9.59006 19.968 9.82413C19.7632 10.0289 19.4998 10.2923 19.178 10.6141C18.1832 11.6382 17.2469 12.6476 16.3692 13.6424C15.5207 14.6079 14.7161 15.5588 13.9554 16.495V16.4512C10.6199 20.6644 8.55718 24.585 7.7672 28.2131C7.73794 28.3593 7.70868 28.491 7.67942 28.608C7.67942 28.7251 7.67942 28.8129 7.67942 28.8714C7.67942 29.4273 7.78183 29.8954 7.98664 30.2758C8.19145 30.6854 8.42551 30.9048 8.68884 30.9341C8.92291 30.9633 9.11309 31.0219 9.25938 31.1096C9.40567 31.1974 9.50808 31.2998 9.56659 31.4169V31.5046C9.56659 31.7094 9.3179 31.8118 8.8205 31.8118Z" fill="#8D541F"/>
<path d="M30.9851 29.7491C29.8441 29.7491 29.2735 29.2371 29.2735 28.2131C29.2735 28.1545 29.2735 28.0521 29.2735 27.9058C29.3028 27.7595 29.332 27.584 29.3613 27.3792C29.6539 26.1796 30.2391 25.0239 31.1168 23.9121C32.0238 22.771 33.0625 21.7762 34.2328 20.9277C34.6717 20.5766 35.3739 20.4011 36.3394 20.4011C36.8953 20.4011 37.3781 20.4888 37.7877 20.6644C38.2266 20.8107 38.5338 21.0447 38.7094 21.3666C38.8849 21.6592 38.9727 21.9956 38.9727 22.376C38.9727 22.4345 38.9581 22.5223 38.9288 22.6393C38.9288 22.7564 38.9142 22.888 38.8849 23.0343C38.9434 23.0051 39.0312 22.9904 39.1482 22.9904C39.2945 22.9904 39.4701 22.9758 39.6749 22.9465C39.8797 22.9173 40.0699 22.888 40.2454 22.8588C40.4502 22.8295 40.6551 22.8149 40.8599 22.8149H41.0354C41.3573 22.8149 41.3865 22.9465 41.1232 23.2099C40.8891 23.4439 40.5673 23.5902 40.1577 23.6487L38.6655 23.8243C38.3729 24.6435 37.8609 25.4628 37.1294 26.282C36.4272 27.1012 35.6372 27.8181 34.7595 28.4325C33.911 29.0177 33.1064 29.398 32.3457 29.5736C31.9068 29.6906 31.4533 29.7491 30.9851 29.7491ZM36.6028 23.2099C36.7783 23.2099 36.9831 23.2099 37.2172 23.2099C37.4805 23.1806 37.7731 23.1513 38.0949 23.1221C38.1242 23.0636 38.1388 22.9319 38.1388 22.7271C38.1388 22.2004 37.9194 21.8347 37.4805 21.6299C37.2464 21.4836 36.9539 21.4105 36.6028 21.4105C36.1639 21.4105 35.7104 21.5568 35.2422 21.8493C34.8034 22.1127 34.3352 22.4638 33.8378 22.9026C34.4523 23.1075 35.3739 23.2099 36.6028 23.2099ZM32.3018 28.2131C32.5944 28.2131 33.004 28.0814 33.5306 27.8181C34.0865 27.5255 34.6571 27.1451 35.2422 26.677C35.8274 26.2089 36.3541 25.7115 36.8222 25.1848C36.9685 25.0385 37.1148 24.863 37.2611 24.6582C37.4074 24.4241 37.5683 24.19 37.7438 23.956L36.6905 24.0876C35.0521 24.3217 33.5891 24.4533 32.3018 24.4826C31.6581 25.5359 31.2631 26.4137 31.1168 27.1159C31.0875 27.4962 31.1899 27.7742 31.424 27.9497C31.6581 28.1253 31.9507 28.2131 32.3018 28.2131Z" fill="#8D541F"/>
<path d="M40.3476 33.0846C40.2013 33.0846 40.1282 32.9529 40.1282 32.6896C40.1282 32.6311 40.1282 32.5433 40.1282 32.4263C40.1574 32.3385 40.1867 32.2361 40.2159 32.1191L42.1031 27.3792L44.3414 21.8493C43.9903 21.8201 43.4783 21.8347 42.8053 21.8932C42.1324 21.9225 41.5618 21.981 41.0937 22.0688C40.9182 22.098 40.7719 22.1273 40.6548 22.1566C40.5671 22.1566 40.4939 22.1566 40.4354 22.1566C40.2013 22.1566 40.0404 22.0542 39.9526 21.8493C39.9819 21.6738 40.1428 21.5129 40.4354 21.3666C40.5817 21.3081 40.7572 21.2642 40.962 21.2349C41.1668 21.1764 41.4155 21.1179 41.7081 21.0594C42.03 21.0008 42.3079 20.957 42.542 20.9277C42.8053 20.8984 42.9955 20.8692 43.1125 20.8399C43.2588 20.8107 43.4051 20.7814 43.5514 20.7522C43.6977 20.7229 43.8733 20.6936 44.0781 20.6644C44.2536 20.6351 44.4438 20.6059 44.6486 20.5766C44.8534 20.5473 45.0728 20.5035 45.3069 20.4449C45.541 20.1231 45.8921 19.5526 46.3602 18.7333C46.8284 17.9141 47.4282 16.8315 48.1596 15.4856C48.7448 14.4031 49.2129 13.5546 49.564 12.9401C49.9444 12.2965 50.2077 11.8722 50.354 11.6674C50.6173 11.3163 50.9245 11.1408 51.2756 11.1408C51.4512 11.1408 51.539 11.2139 51.539 11.3602C51.539 11.3895 51.4658 11.5796 51.3195 11.9307C51.144 12.2233 50.8514 12.7646 50.4418 13.5546C50.0322 14.3446 49.5933 15.2077 49.1251 16.1439C48.657 17.0802 48.2328 17.958 47.8524 18.7772C47.472 19.5964 47.2087 20.1962 47.0624 20.5766C47.2087 20.5473 47.3696 20.5327 47.5452 20.5327C47.75 20.5327 47.9987 20.5327 48.2913 20.5327C48.6131 20.5327 48.9057 20.5473 49.169 20.5766C49.4616 20.5766 49.7103 20.5912 49.9151 20.6205C50.3247 20.7083 50.5295 20.8253 50.5295 20.9716C50.5295 21.0301 50.3979 21.1325 50.1346 21.2788C49.9883 21.3373 49.7103 21.3958 49.3007 21.4544C48.8911 21.5129 48.3498 21.5714 47.6768 21.6299C47.5013 21.6299 47.3111 21.6445 47.1063 21.6738C46.9015 21.6738 46.6821 21.6884 46.448 21.7177C45.5702 23.1513 44.3706 25.5359 42.8492 28.8714C42.2933 29.9832 41.869 30.8463 41.5765 31.4607C41.2839 32.0752 41.1083 32.4409 41.0498 32.5579C40.7865 32.909 40.5524 33.0846 40.3476 33.0846Z" fill="#8D541F"/>
<path d="M49.2194 33.0846C49.0731 33.0846 49 32.9529 49 32.6896C49 32.6311 49 32.5433 49 32.4263C49.0292 32.3385 49.0585 32.2361 49.0878 32.1191L50.9749 27.3792L53.2132 21.8493C52.8621 21.8201 52.3501 21.8347 51.6771 21.8932C51.0042 21.9225 50.4337 21.981 49.9655 22.0688C49.79 22.098 49.6437 22.1273 49.5266 22.1566C49.4389 22.1566 49.3657 22.1566 49.3072 22.1566C49.0731 22.1566 48.9122 22.0542 48.8244 21.8493C48.8537 21.6738 49.0146 21.5129 49.3072 21.3666C49.4535 21.3081 49.629 21.2642 49.8339 21.2349C50.0387 21.1764 50.2874 21.1179 50.5799 21.0594C50.9018 21.0008 51.1797 20.957 51.4138 20.9277C51.6771 20.8984 51.8673 20.8692 51.9844 20.8399C52.1306 20.8107 52.2769 20.7814 52.4232 20.7522C52.5695 20.7229 52.7451 20.6936 52.9499 20.6644C53.1254 20.6351 53.3156 20.6059 53.5204 20.5766C53.7252 20.5473 53.9447 20.5035 54.1787 20.4449C54.4128 20.1231 54.7639 19.5526 55.232 18.7333C55.7002 17.9141 56.3 16.8315 57.0314 15.4856C57.6166 14.4031 58.0847 13.5546 58.4358 12.9401C58.8162 12.2965 59.0795 11.8722 59.2258 11.6674C59.4891 11.3163 59.7964 11.1408 60.1475 11.1408C60.323 11.1408 60.4108 11.2139 60.4108 11.3602C60.4108 11.3895 60.3376 11.5796 60.1913 11.9307C60.0158 12.2233 59.7232 12.7646 59.3136 13.5546C58.904 14.3446 58.4651 15.2077 57.997 16.1439C57.5288 17.0802 57.1046 17.958 56.7242 18.7772C56.3439 19.5964 56.0805 20.1962 55.9342 20.5766C56.0805 20.5473 56.2415 20.5327 56.417 20.5327C56.6218 20.5327 56.8705 20.5327 57.1631 20.5327C57.4849 20.5327 57.7775 20.5473 58.0409 20.5766C58.3334 20.5766 58.5821 20.5912 58.7869 20.6205C59.1966 20.7083 59.4014 20.8253 59.4014 20.9716C59.4014 21.0301 59.2697 21.1325 59.0064 21.2788C58.8601 21.3373 58.5821 21.3958 58.1725 21.4544C57.7629 21.5129 57.2216 21.5714 56.5487 21.6299C56.3731 21.6299 56.1829 21.6445 55.9781 21.6738C55.7733 21.6738 55.5539 21.6884 55.3198 21.7177C54.4421 23.1513 53.2425 25.5359 51.721 28.8714C51.1651 29.9832 50.7409 30.8463 50.4483 31.4607C50.1557 32.0752 49.9801 32.4409 49.9216 32.5579C49.6583 32.909 49.4242 33.0846 49.2194 33.0846Z" fill="#8D541F"/>
<path d="M60.154 29.4858C59.5395 29.4858 58.9983 29.3249 58.5301 29.003C57.7694 28.4179 57.3891 27.5401 57.3891 26.3698C57.3891 25.1994 57.7987 23.956 58.6179 22.6393C59.4371 21.3227 60.6806 20.1085 62.3484 18.9966C62.6409 18.7918 63.0359 18.6894 63.5333 18.6894C64.177 18.6894 64.7475 18.865 65.2449 19.2161C65.7716 19.5672 65.9764 20.0207 65.8594 20.5766C65.6546 21.4836 65.2011 22.2882 64.4988 22.9904C63.8259 23.6926 63.0213 24.3217 62.085 24.8776C61.178 25.4042 60.2417 25.9163 59.2762 26.4137C59.247 26.5014 59.2177 26.5892 59.1884 26.677C59.1884 26.7648 59.1884 26.8525 59.1884 26.9403C59.1884 27.3499 59.3201 27.7157 59.5834 28.0375C59.876 28.3301 60.271 28.4764 60.7684 28.4764C61.1488 28.4764 61.4706 28.4179 61.7339 28.3008C62.2021 28.1253 62.5824 27.9644 62.875 27.8181C63.1968 27.6718 63.5626 27.4523 63.9722 27.1598C64.3818 26.8672 64.9377 26.4283 65.6399 25.8431C65.9618 25.6091 66.152 25.492 66.2105 25.492C66.386 25.492 66.4445 25.6237 66.386 25.887C66.0934 26.3551 65.5814 26.8672 64.8499 27.4231C64.1477 27.979 63.3578 28.4618 62.48 28.8714C61.6315 29.281 60.8562 29.4858 60.154 29.4858ZM59.5395 25.2287C59.7736 25.2287 60.2564 24.9946 60.9878 24.5265C61.7193 24.0584 62.4069 23.5463 63.0506 22.9904C64.1624 21.9664 64.7183 21.1764 64.7183 20.6205C64.7183 20.4742 64.6744 20.3425 64.5866 20.2255C64.4989 20.0792 64.3672 20.0061 64.1916 20.0061C63.6357 20.0061 62.6995 20.6644 61.3828 21.981C60.4758 22.8588 59.8614 23.9413 59.5395 25.2287Z" fill="#8D541F"/>
<path d="M66.3528 29.9247C65.9724 29.9247 65.7822 29.5882 65.7822 28.9153C65.7822 28.3593 65.9139 27.8181 66.1772 27.2914C66.8502 26.004 67.4646 24.7313 68.0205 23.4732C68.4009 22.7125 68.752 21.981 69.0738 21.2788C69.4249 20.5766 69.7467 19.9329 70.0393 19.3477C70.2149 19.1722 70.3904 19.0844 70.566 19.0844C70.9463 19.0844 71.0634 19.26 70.9171 19.6111C70.8586 19.8159 70.7708 20.0646 70.6537 20.3572C70.566 20.6205 70.4489 20.9423 70.3026 21.3227C69.8345 22.5515 69.5566 23.4147 69.4688 23.9121C70.288 23.1806 71.1219 22.5077 71.9704 21.8932C72.8481 21.2495 73.6674 20.7229 74.4281 20.3133C75.1888 19.9037 75.8325 19.6988 76.3591 19.6988C76.8273 19.6988 77.0613 19.889 77.0613 20.2694C77.0613 20.5912 76.9151 20.9423 76.6225 21.3227C76.3299 21.6738 76.0373 21.8493 75.7447 21.8493C75.5984 21.8493 75.4814 21.8055 75.3936 21.7177C75.3058 21.6884 75.1303 21.6738 74.867 21.6738C73.9307 21.6738 72.9505 22.1273 71.9265 23.0343C70.8439 23.9413 69.8638 25.0385 68.986 26.3259C68.1083 27.584 67.4646 28.6812 67.055 29.6175C66.8502 29.8223 66.6161 29.9247 66.3528 29.9247Z" fill="#8D541F"/>
<path d="M75.2736 38C74.6299 38 74.1033 37.7074 73.6937 37.1222C73.284 36.5371 73.0792 35.8495 73.0792 35.0595C73.0792 34.6207 73.1524 34.2257 73.2987 33.8746C73.5327 33.3772 73.7229 33.1285 73.8692 33.1285C73.9862 33.1285 74.0448 33.2162 74.0448 33.3918C74.0448 33.5381 74.0009 33.7283 73.9131 33.9623C73.8838 34.0501 73.8692 34.1233 73.8692 34.1818C73.8399 34.2696 73.8253 34.3427 73.8253 34.4012C73.8253 34.9279 73.9716 35.4691 74.2642 36.0251C74.586 36.581 74.981 36.8589 75.4492 36.8589L75.8003 36.7711C76.5025 36.5956 77.1608 36.2006 77.7752 35.5862C78.4189 35.001 79.0479 34.2696 79.6624 33.3918C80.4816 32.1922 81.2131 30.8902 81.8568 29.4858C82.5004 28.1106 83.0564 26.7355 83.5245 25.3604C83.9926 23.9852 84.3437 22.7417 84.5778 21.6299C84.5778 21.4836 84.5193 21.4105 84.4022 21.4105C84.1974 21.4105 83.8756 21.6445 83.4367 22.1127C83.0856 22.493 82.6321 23.0197 82.0762 23.6926C81.5203 24.3656 80.8327 25.1702 80.0135 26.1064L79.3113 26.9403C78.8431 27.4962 78.3604 27.9058 77.863 28.1692C77.3948 28.4032 76.956 28.5203 76.5464 28.5203C76.1953 28.5203 75.9027 28.4471 75.6686 28.3008C75.376 28.096 75.2297 27.7303 75.2297 27.2036C75.2297 26.3551 75.6247 24.9507 76.4147 22.9904L76.9852 21.586C77.2778 20.9131 77.5265 20.2986 77.7313 19.7427C77.9654 19.1868 78.1848 18.6748 78.3896 18.2067C78.5944 17.8263 78.8285 17.6361 79.0918 17.6361C79.4137 17.6361 79.4722 17.8263 79.2674 18.2067C78.2141 20.6059 77.5997 22.493 77.4241 23.8682C77.3948 23.9267 77.3802 24.0145 77.3802 24.1315C77.3802 24.2193 77.3802 24.3217 77.3802 24.4387C77.3802 25.0824 77.6435 25.4042 78.1702 25.4042C78.5213 25.4042 79.0187 25.1994 79.6624 24.7898C80.3061 24.3217 81.1107 23.5902 82.0762 22.5954C83.0417 21.5714 84.1974 20.284 85.5433 18.7333C85.7774 18.4993 85.9968 18.2652 86.2016 18.0311C86.4064 17.7971 86.5966 17.5776 86.7722 17.3728C86.8892 17.2558 86.9916 17.1973 87.0794 17.1973C87.1672 17.1973 87.2111 17.3289 87.2111 17.5922C87.2111 17.8556 87.1672 18.192 87.0794 18.6017C86.9916 18.982 86.9477 19.2161 86.9477 19.3039C86.5966 21.4397 85.9529 23.7365 85.0167 26.1942C84.0511 28.6227 82.8223 30.8756 81.3301 32.9529C79.8672 35.0303 78.2287 36.5956 76.4147 37.6489C76.0343 37.883 75.654 38 75.2736 38Z" fill="#8D541F"/>
<path d="M48.2299 5.25829C47.994 5.60391 47.684 5.86723 47.3 6.04827C46.9215 6.2293 46.5101 6.31982 46.0657 6.31982C45.3745 6.31982 44.7957 6.09216 44.3294 5.63682C43.8686 5.18149 43.6382 4.62466 43.6382 3.96635C43.6382 3.30803 43.8713 2.74572 44.3376 2.27942C44.8039 1.80762 45.4074 1.57173 46.148 1.57173C46.5869 1.57173 46.9901 1.66773 47.3576 1.85974C47.7307 2.05175 48.0214 2.32056 48.2299 2.66618L47.695 3.00356C47.2945 2.4824 46.7706 2.22181 46.1233 2.22181C45.6131 2.22181 45.1852 2.38639 44.8396 2.71555C44.494 3.03922 44.3212 3.44244 44.3212 3.9252C44.3212 4.40797 44.4912 4.82216 44.8314 5.16777C45.1715 5.51339 45.6021 5.68619 46.1233 5.68619C46.7487 5.68619 47.2753 5.42287 47.7032 4.89622L48.2299 5.25829Z" fill="#8D541F"/>
<path d="M49.7643 6.1717H49.0895V0H49.7643V6.1717Z" fill="#8D541F"/>
<path d="M54.6868 6.1717H54.0038V5.49693C53.5594 6.02358 53.0328 6.28691 52.4238 6.28691C52.1002 6.28691 51.8067 6.20462 51.5433 6.04004C51.28 5.86997 51.0825 5.63956 50.9509 5.34881C50.8192 5.05257 50.7534 4.59998 50.7534 3.99103V1.68693H51.4281V3.82646C51.4281 4.32019 51.4501 4.65758 51.494 4.83861C51.5433 5.01416 51.6119 5.16503 51.6997 5.29121C51.7929 5.4119 51.9082 5.50241 52.0453 5.56276C52.1879 5.62311 52.358 5.65328 52.5555 5.65328C52.7585 5.65328 52.956 5.60391 53.148 5.50516C53.34 5.40641 53.5046 5.26926 53.6417 5.09371C53.7789 4.91816 53.8721 4.73164 53.9215 4.53414C53.9764 4.33665 54.0038 3.94166 54.0038 3.34918V1.68693H54.6868V6.1717Z" fill="#8D541F"/>
<path d="M56.5333 2.34525C56.9997 1.82957 57.5592 1.57173 58.2121 1.57173C58.8649 1.57173 59.4135 1.80488 59.8578 2.27119C60.3077 2.73201 60.5326 3.28883 60.5326 3.94166C60.5326 4.59449 60.3049 5.15406 59.8496 5.62036C59.3943 6.08667 58.8429 6.31982 58.1956 6.31982C57.5537 6.31982 56.9997 6.04004 56.5333 5.48047V6.1717H55.8668V0H56.5333V2.34525ZM58.1709 5.66151C58.6372 5.66151 59.0322 5.4887 59.3559 5.14309C59.685 4.79747 59.8496 4.39425 59.8496 3.93343C59.8496 3.46712 59.6905 3.06116 59.3723 2.71555C59.0541 2.36993 58.6564 2.19713 58.1791 2.19713C57.7019 2.19713 57.3014 2.35896 56.9777 2.68263C56.6595 3.0063 56.5004 3.41501 56.5004 3.90874C56.5004 4.39699 56.6623 4.81118 56.9859 5.15131C57.3096 5.49144 57.7046 5.66151 58.1709 5.66151Z" fill="#8D541F"/>
</svg>
