<svg width="61" height="27" viewBox="0 0 61 27" fill="none" xmlns="http://www.w3.org/2000/svg">
<path d="M9.38622 15.1123C9.20035 15.1123 9.10742 14.9988 9.10742 14.7716C9.10742 14.5444 9.1797 14.3172 9.32426 14.0901C9.48948 13.8629 9.66502 13.7493 9.85088 13.7493C9.95414 13.7287 10.0677 13.7183 10.1916 13.7183C10.3362 13.7183 10.5117 13.708 10.7183 13.6874C10.9041 13.6874 11.0693 13.6874 11.2139 13.6874C11.3585 13.6874 11.472 13.677 11.5547 13.6564H11.5856C11.7095 13.6564 11.7818 13.7493 11.8025 13.9352C11.8851 14.0178 11.9574 14.0591 12.0193 14.0591C14.0845 13.6667 16.1497 12.9129 18.2148 11.7977C19.5159 11.0749 20.4969 10.3005 21.1577 9.47441C21.8186 8.64835 22.149 7.8326 22.149 7.02718C22.149 5.9946 21.612 5.12722 20.5382 4.42506C19.4643 3.7229 17.967 3.32019 16.0464 3.21694C15.9225 3.19628 15.7676 3.18596 15.5817 3.18596C15.4165 3.18596 15.2203 3.18596 14.9932 3.18596C12.9693 3.18596 11.0384 3.50606 9.20035 4.14627C7.383 4.76582 5.72053 5.67449 4.21296 6.8723C2.72603 8.04944 1.45595 9.47441 0.402709 11.1472C0.320102 11.2711 0.237495 11.3331 0.154888 11.3331C0.0516294 11.3331 0 11.2195 0 10.9923C0 10.5999 0.134236 10.2076 0.402709 9.81517C1.4353 8.22498 2.76733 6.90327 4.39882 5.85003C6.03031 4.77614 7.82701 3.97072 9.78893 3.43378C11.7715 2.87618 13.7954 2.59738 15.8605 2.59738C17.492 2.59738 18.948 2.77292 20.2284 3.124C21.4468 3.47508 22.3762 3.9604 23.0164 4.57995C23.6772 5.1995 24.0077 5.90166 24.0077 6.68643C24.0077 7.5125 23.6256 8.37987 22.8615 9.28855C22.0974 10.1972 20.9512 11.0749 19.423 11.9216C18.6175 12.3553 17.7398 12.7684 16.7899 13.1608C15.8605 13.5325 14.9312 13.8732 14.0019 14.183C13.0726 14.4721 12.2052 14.6993 11.3998 14.8645C10.615 15.0297 9.95414 15.1123 9.4172 15.1123H9.38622ZM5.6689 22.454C4.51241 22.454 3.93416 21.8964 3.93416 20.7812C3.93416 20.5128 3.96513 20.2236 4.02709 19.9139C4.31621 18.1791 4.95642 16.4444 5.9477 14.7096C6.95964 12.9749 8.17809 11.1472 9.60306 9.22659L10.5634 7.86358C10.6047 7.82228 10.6253 7.76032 10.6253 7.67771C10.6253 7.63641 10.615 7.58478 10.5943 7.52283C10.5943 7.46087 10.5943 7.41957 10.5943 7.39891C10.5943 7.13044 10.8318 6.8723 11.3068 6.62447C11.5547 6.21144 11.8748 5.90166 12.2671 5.69515C12.6595 5.48863 13.0312 5.38537 13.3823 5.38537C13.9193 5.38537 14.1877 5.56091 14.1877 5.91199C14.1877 6.13916 14.0845 6.356 13.878 6.56252C13.7954 6.64513 13.6818 6.76904 13.5372 6.93425C13.3927 7.07881 13.2068 7.26468 12.9796 7.49185C12.2775 8.21466 11.6166 8.92714 10.9971 9.6293C10.3982 10.3108 9.83023 10.982 9.29328 11.6428V11.6119C6.93899 14.5857 5.48304 17.3531 4.92544 19.9139C4.90479 20.0171 4.88414 20.1101 4.86349 20.1927C4.86349 20.2753 4.86349 20.3372 4.86349 20.3785C4.86349 20.7709 4.93577 21.1013 5.08033 21.3698C5.22489 21.6589 5.39011 21.8138 5.57597 21.8345C5.74118 21.8551 5.87542 21.8964 5.97868 21.9584C6.08194 22.0203 6.15422 22.0926 6.19552 22.1752V22.2372C6.19552 22.3818 6.01998 22.454 5.6689 22.454Z" fill="#8D541F"/>
<path d="M21.3136 20.9981C20.5081 20.9981 20.1054 20.6367 20.1054 19.9139C20.1054 19.8726 20.1054 19.8003 20.1054 19.697C20.1261 19.5938 20.1467 19.4699 20.1674 19.3253C20.3739 18.4786 20.7869 17.6628 21.4065 16.8781C22.0467 16.0726 22.7798 15.3705 23.6059 14.7716C23.9157 14.5238 24.4113 14.3999 25.0928 14.3999C25.4852 14.3999 25.826 14.4618 26.1151 14.5857C26.4249 14.689 26.6417 14.8542 26.7656 15.0814C26.8895 15.2879 26.9515 15.5254 26.9515 15.7938C26.9515 15.8352 26.9412 15.8971 26.9205 15.9797C26.9205 16.0623 26.9102 16.1553 26.8895 16.2585C26.9308 16.2379 26.9928 16.2275 27.0754 16.2275C27.1787 16.2275 27.3026 16.2172 27.4471 16.1966C27.5917 16.1759 27.7259 16.1553 27.8498 16.1346C27.9944 16.114 28.139 16.1036 28.2835 16.1036H28.4074C28.6346 16.1036 28.6553 16.1966 28.4694 16.3824C28.3042 16.5476 28.077 16.6509 27.7879 16.6922L26.7346 16.8161C26.5281 17.3944 26.1667 17.9726 25.6504 18.5509C25.1548 19.1291 24.5972 19.6351 23.9776 20.0688C23.3787 20.4818 22.8108 20.7503 22.2739 20.8742C21.9641 20.9568 21.644 20.9981 21.3136 20.9981ZM25.2787 16.3824C25.4026 16.3824 25.5472 16.3824 25.7124 16.3824C25.8983 16.3618 26.1048 16.3411 26.3319 16.3205C26.3526 16.2792 26.3629 16.1862 26.3629 16.0417C26.3629 15.6699 26.208 15.4118 25.8983 15.2672C25.733 15.164 25.5265 15.1123 25.2787 15.1123C24.9689 15.1123 24.6488 15.2156 24.3184 15.4221C24.0086 15.608 23.6782 15.8558 23.3271 16.1656C23.7608 16.3101 24.4113 16.3824 25.2787 16.3824ZM22.2429 19.9139C22.4494 19.9139 22.7385 19.8209 23.1103 19.6351C23.5027 19.4286 23.9054 19.1601 24.3184 18.8297C24.7314 18.4992 25.1032 18.1481 25.4336 17.7764C25.5368 17.6732 25.6401 17.5492 25.7434 17.4047C25.8466 17.2395 25.9602 17.0743 26.0841 16.909L25.3407 17.002C24.1842 17.1672 23.1516 17.2601 22.2429 17.2808C21.7886 18.0242 21.5098 18.6438 21.4065 19.1394C21.3858 19.4079 21.4581 19.6041 21.6233 19.728C21.7886 19.8519 21.9951 19.9139 22.2429 19.9139Z" fill="#8D541F"/>
<path d="M27.922 23.3524C27.8187 23.3524 27.7671 23.2595 27.7671 23.0736C27.7671 23.0323 27.7671 22.9703 27.7671 22.8877C27.7877 22.8258 27.8084 22.7535 27.829 22.6709L29.1611 19.3253L30.7409 15.4221C30.4931 15.4015 30.1317 15.4118 29.6567 15.4531C29.1817 15.4737 28.779 15.515 28.4486 15.577C28.3247 15.5977 28.2214 15.6183 28.1388 15.639C28.0769 15.639 28.0252 15.639 27.9839 15.639C27.8187 15.639 27.7051 15.5667 27.6432 15.4221C27.6638 15.2982 27.7774 15.1846 27.9839 15.0814C28.0872 15.0401 28.2111 15.0091 28.3556 14.9884C28.5002 14.9471 28.6758 14.9058 28.8823 14.8645C29.1094 14.8232 29.3056 14.7922 29.4708 14.7716C29.6567 14.7509 29.7909 14.7303 29.8736 14.7096C29.9768 14.689 30.0801 14.6683 30.1833 14.6477C30.2866 14.627 30.4105 14.6064 30.5551 14.5857C30.679 14.5651 30.8132 14.5444 30.9578 14.5238C31.1023 14.5031 31.2572 14.4721 31.4224 14.4308C31.5876 14.2037 31.8355 13.801 32.1659 13.2227C32.4963 12.6445 32.9197 11.8803 33.436 10.9304C33.849 10.1662 34.1794 9.56735 34.4273 9.13366C34.6957 8.67932 34.8816 8.37987 34.9849 8.23531C35.1707 7.98749 35.3876 7.86358 35.6354 7.86358C35.7593 7.86358 35.8213 7.91521 35.8213 8.01847C35.8213 8.03912 35.7696 8.17335 35.6664 8.42118C35.5425 8.62769 35.3359 9.00975 35.0468 9.56735C34.7577 10.1249 34.4479 10.7342 34.1175 11.395C33.7871 12.0559 33.4876 12.6754 33.2191 13.2537C32.9507 13.8319 32.7648 14.2553 32.6615 14.5238C32.7648 14.5031 32.8784 14.4928 33.0023 14.4928C33.1469 14.4928 33.3224 14.4928 33.5289 14.4928C33.7561 14.4928 33.9626 14.5031 34.1485 14.5238C34.355 14.5238 34.5305 14.5341 34.6751 14.5547C34.9642 14.6167 35.1088 14.6993 35.1088 14.8026C35.1088 14.8439 35.0158 14.9161 34.83 15.0194C34.7267 15.0607 34.5305 15.102 34.2414 15.1433C33.9523 15.1846 33.5702 15.2259 33.0952 15.2672C32.9713 15.2672 32.8371 15.2776 32.6925 15.2982C32.548 15.2982 32.3931 15.3085 32.2279 15.3292C31.6083 16.3411 30.7616 18.0242 29.6877 20.3785C29.2953 21.1633 28.9959 21.7725 28.7893 22.2062C28.5828 22.6399 28.4589 22.898 28.4176 22.9807C28.2317 23.2285 28.0665 23.3524 27.922 23.3524Z" fill="#8D541F"/>
<path d="M34.184 23.3524C34.0808 23.3524 34.0291 23.2595 34.0291 23.0736C34.0291 23.0323 34.0291 22.9703 34.0291 22.8877C34.0498 22.8258 34.0705 22.7535 34.0911 22.6709L35.4231 19.3253L37.003 15.4221C36.7552 15.4015 36.3938 15.4118 35.9188 15.4531C35.4438 15.4737 35.0411 15.515 34.7107 15.577C34.5867 15.5977 34.4835 15.6183 34.4009 15.639C34.3389 15.639 34.2873 15.639 34.246 15.639C34.0808 15.639 33.9672 15.5667 33.9052 15.4221C33.9259 15.2982 34.0395 15.1846 34.246 15.0814C34.3493 15.0401 34.4732 15.0091 34.6177 14.9884C34.7623 14.9471 34.9378 14.9058 35.1443 14.8645C35.3715 14.8232 35.5677 14.7922 35.7329 14.7716C35.9188 14.7509 36.053 14.7303 36.1356 14.7096C36.2389 14.689 36.3421 14.6683 36.4454 14.6477C36.5487 14.627 36.6726 14.6064 36.8171 14.5857C36.941 14.5651 37.0753 14.5444 37.2198 14.5238C37.3644 14.5031 37.5193 14.4721 37.6845 14.4308C37.8497 14.2037 38.0975 13.801 38.428 13.2227C38.7584 12.6445 39.1818 11.8803 39.6981 10.9304C40.1111 10.1662 40.4415 9.56735 40.6893 9.13366C40.9578 8.67932 41.1437 8.37987 41.2469 8.23531C41.4328 7.98749 41.6496 7.86358 41.8975 7.86358C42.0214 7.86358 42.0833 7.91521 42.0833 8.01847C42.0833 8.03912 42.0317 8.17335 41.9284 8.42118C41.8045 8.62769 41.598 9.00975 41.3089 9.56735C41.0198 10.1249 40.71 10.7342 40.3796 11.395C40.0491 12.0559 39.7497 12.6754 39.4812 13.2537C39.2127 13.8319 39.0269 14.2553 38.9236 14.5238C39.0269 14.5031 39.1405 14.4928 39.2644 14.4928C39.4089 14.4928 39.5845 14.4928 39.791 14.4928C40.0182 14.4928 40.2247 14.5031 40.4105 14.5238C40.6171 14.5238 40.7926 14.5341 40.9372 14.5547C41.2263 14.6167 41.3708 14.6993 41.3708 14.8026C41.3708 14.8439 41.2779 14.9161 41.092 15.0194C40.9888 15.0607 40.7926 15.102 40.5035 15.1433C40.2143 15.1846 39.8323 15.2259 39.3573 15.2672C39.2334 15.2672 39.0992 15.2776 38.9546 15.2982C38.81 15.2982 38.6551 15.3085 38.4899 15.3292C37.8704 16.3411 37.0237 18.0242 35.9498 20.3785C35.5574 21.1633 35.2579 21.7725 35.0514 22.2062C34.8449 22.6399 34.721 22.898 34.6797 22.9807C34.4938 23.2285 34.3286 23.3524 34.184 23.3524Z" fill="#8D541F"/>
<path d="M41.9021 20.8122C41.4684 20.8122 41.0863 20.6986 40.7559 20.4715C40.2189 20.0584 39.9505 19.4389 39.9505 18.6128C39.9505 17.7867 40.2396 16.909 40.8178 15.9797C41.3961 15.0504 42.2738 14.1933 43.4509 13.4086C43.6575 13.264 43.9363 13.1917 44.2873 13.1917C44.7417 13.1917 45.1444 13.3156 45.4955 13.5635C45.8672 13.8113 46.0118 14.1314 45.9292 14.5238C45.7846 15.164 45.4645 15.7319 44.9688 16.2275C44.4939 16.7232 43.9259 17.1672 43.2651 17.5596C42.6249 17.9313 41.964 18.2927 41.2825 18.6438C41.2619 18.7057 41.2412 18.7677 41.2206 18.8297C41.2206 18.8916 41.2206 18.9536 41.2206 19.0155C41.2206 19.3046 41.3135 19.5628 41.4994 19.79C41.7059 19.9965 41.9847 20.0997 42.3358 20.0997C42.6042 20.0997 42.8314 20.0584 43.0173 19.9758C43.3477 19.8519 43.6162 19.7383 43.8227 19.6351C44.0498 19.5318 44.308 19.3769 44.5971 19.1704C44.8862 18.9639 45.2786 18.6541 45.7743 18.2411C46.0014 18.0759 46.1357 17.9933 46.177 17.9933C46.3009 17.9933 46.3422 18.0862 46.3009 18.2721C46.0944 18.6025 45.733 18.9639 45.2167 19.3563C44.721 19.7487 44.1634 20.0894 43.5439 20.3785C42.945 20.6677 42.3977 20.8122 41.9021 20.8122ZM41.4684 17.8074C41.6336 17.8074 41.9743 17.6422 42.4906 17.3118C43.0069 16.9813 43.4922 16.6199 43.9466 16.2275C44.7314 15.5047 45.1237 14.9471 45.1237 14.5547C45.1237 14.4515 45.0928 14.3586 45.0308 14.2759C44.9688 14.1727 44.8759 14.1211 44.752 14.1211C44.3596 14.1211 43.6988 14.5857 42.7694 15.515C42.1292 16.1346 41.6955 16.8987 41.4684 17.8074Z" fill="#8D541F"/>
<path d="M46.2774 21.122C46.0089 21.122 45.8747 20.8845 45.8747 20.4095C45.8747 20.0171 45.9676 19.6351 46.1535 19.2633C46.6285 18.3547 47.0622 17.4563 47.4546 16.5683C47.723 16.0313 47.9709 15.515 48.198 15.0194C48.4458 14.5238 48.673 14.0694 48.8795 13.6564C49.0034 13.5325 49.1273 13.4705 49.2513 13.4705C49.5197 13.4705 49.6023 13.5944 49.4991 13.8423C49.4578 13.9868 49.3958 14.1624 49.3132 14.3689C49.2513 14.5547 49.1687 14.7819 49.0654 15.0504C48.735 15.9178 48.5388 16.527 48.4768 16.8781C49.0551 16.3618 49.6436 15.8868 50.2425 15.4531C50.8621 14.9988 51.4403 14.627 51.9773 14.3379C52.5142 14.0488 52.9686 13.9042 53.3403 13.9042C53.6707 13.9042 53.8359 14.0384 53.8359 14.3069C53.8359 14.5341 53.7327 14.7819 53.5262 15.0504C53.3197 15.2982 53.1131 15.4221 52.9066 15.4221C52.8034 15.4221 52.7208 15.3911 52.6588 15.3292C52.5968 15.3085 52.4729 15.2982 52.2871 15.2982C51.6262 15.2982 50.9344 15.6183 50.2116 16.2585C49.4475 16.8987 48.7556 17.6732 48.1361 18.5818C47.5165 19.4699 47.0622 20.2443 46.773 20.9052C46.6285 21.0497 46.4633 21.122 46.2774 21.122Z" fill="#8D541F"/>
<path d="M52.5741 26.8219C52.1198 26.8219 51.748 26.6154 51.4589 26.2023C51.1698 25.7893 51.0252 25.304 51.0252 24.7464C51.0252 24.4366 51.0768 24.1578 51.1801 23.91C51.3453 23.5589 51.4796 23.3834 51.5828 23.3834C51.6654 23.3834 51.7067 23.4453 51.7067 23.5692C51.7067 23.6725 51.6757 23.8067 51.6138 23.9719C51.5931 24.0339 51.5828 24.0855 51.5828 24.1268C51.5622 24.1888 51.5518 24.2404 51.5518 24.2817C51.5518 24.6534 51.6551 25.0355 51.8616 25.4279C52.0888 25.8203 52.3676 26.0165 52.698 26.0165L52.9458 25.9545C53.4415 25.8306 53.9061 25.5518 54.3398 25.1181C54.7942 24.7051 55.2382 24.1888 55.6719 23.5692C56.2501 22.7225 56.7664 21.8035 57.2207 20.8122C57.6751 19.8416 58.0675 18.871 58.3979 17.9003C58.7283 16.9297 58.9761 16.052 59.1413 15.2672C59.1413 15.164 59.1 15.1123 59.0174 15.1123C58.8729 15.1123 58.6457 15.2776 58.3359 15.608C58.0881 15.8765 57.768 16.2482 57.3756 16.7232C56.9832 17.1982 56.4979 17.7661 55.9197 18.4269L55.424 19.0155C55.0936 19.4079 54.7529 19.697 54.4018 19.8829C54.0713 20.0481 53.7616 20.1307 53.4724 20.1307C53.2246 20.1307 53.0181 20.0791 52.8529 19.9758C52.6464 19.8313 52.5431 19.5731 52.5431 19.2014C52.5431 18.6025 52.8219 17.6112 53.3795 16.2275L53.7822 15.2363C53.9887 14.7613 54.1643 14.3276 54.3088 13.9352C54.4741 13.5428 54.6289 13.1814 54.7735 12.851C54.9181 12.5825 55.0833 12.4483 55.2691 12.4483C55.4963 12.4483 55.5376 12.5825 55.3931 12.851C54.6496 14.5444 54.2159 15.8765 54.092 16.8471C54.0713 16.8884 54.061 16.9503 54.061 17.033C54.061 17.0949 54.061 17.1672 54.061 17.2498C54.061 17.7041 54.2469 17.9313 54.6186 17.9313C54.8664 17.9313 55.2175 17.7867 55.6719 17.4976C56.1262 17.1672 56.6941 16.6509 57.3756 15.9487C58.0571 15.2259 58.8729 14.3172 59.8229 13.2227C59.9881 13.0575 60.143 12.8923 60.2875 12.7271C60.4321 12.5619 60.5663 12.407 60.6902 12.2624C60.7728 12.1798 60.8451 12.1385 60.9071 12.1385C60.969 12.1385 61 12.2314 61 12.4173C61 12.6032 60.969 12.8406 60.9071 13.1298C60.8451 13.3982 60.8141 13.5635 60.8141 13.6254C60.5663 15.133 60.112 16.7542 59.4511 18.4889C58.7696 20.203 57.9022 21.7932 56.849 23.2595C55.8164 24.7257 54.6599 25.8306 53.3795 26.5741C53.111 26.7393 52.8426 26.8219 52.5741 26.8219Z" fill="#8D541F"/>
<path d="M33.4856 3.71151C33.3191 3.95545 33.1003 4.14132 32.8293 4.2691C32.5621 4.39689 32.2717 4.46078 31.958 4.46078C31.4701 4.46078 31.0616 4.30008 30.7325 3.97869C30.4072 3.65729 30.2446 3.26427 30.2446 2.7996C30.2446 2.33494 30.4091 1.93804 30.7383 1.6089C31.0674 1.27589 31.4933 1.10939 32.0161 1.10939C32.3259 1.10939 32.6105 1.17715 32.8699 1.31268C33.1332 1.4482 33.3384 1.63794 33.4856 1.88189L33.108 2.12003C32.8254 1.75217 32.4556 1.56824 31.9987 1.56824C31.6385 1.56824 31.3365 1.68441 31.0926 1.91674C30.8486 2.1452 30.7266 2.42981 30.7266 2.77056C30.7266 3.11131 30.8467 3.40367 31.0868 3.64761C31.3268 3.89156 31.6308 4.01354 31.9987 4.01354C32.4401 4.01354 32.8118 3.82767 33.1139 3.45594L33.4856 3.71151Z" fill="#8D541F"/>
<path d="M34.5686 4.35623H34.0923V0H34.5686V4.35623Z" fill="#8D541F"/>
<path d="M38.0431 4.35623H37.561V3.87995C37.2474 4.25168 36.8756 4.43754 36.4458 4.43754C36.2174 4.43754 36.0102 4.37946 35.8243 4.26329C35.6385 4.14326 35.4991 3.98062 35.4061 3.7754C35.3132 3.5663 35.2667 3.24684 35.2667 2.81703V1.1907H35.743V2.70086C35.743 3.04936 35.7585 3.2875 35.7895 3.41528C35.8243 3.53919 35.8727 3.64568 35.9347 3.73474C36.0005 3.81993 36.0818 3.88382 36.1786 3.92641C36.2793 3.96901 36.3994 3.9903 36.5388 3.9903C36.682 3.9903 36.8214 3.95545 36.957 3.88575C37.0925 3.81605 37.2086 3.71925 37.3055 3.59534C37.4023 3.47143 37.4681 3.33977 37.5029 3.20037C37.5417 3.06098 37.561 2.78218 37.561 2.36398V1.1907H38.0431V4.35623Z" fill="#8D541F"/>
<path d="M39.3465 1.65537C39.6756 1.29138 40.0706 1.10939 40.5314 1.10939C40.9922 1.10939 41.3794 1.27395 41.693 1.60309C42.0106 1.92836 42.1693 2.32138 42.1693 2.78218C42.1693 3.24297 42.0086 3.63793 41.6872 3.96707C41.3658 4.29621 40.9767 4.46078 40.5198 4.46078C40.0667 4.46078 39.6756 4.26329 39.3465 3.86833V4.35623H38.876V0H39.3465V1.65537ZM40.5023 3.99611C40.8315 3.99611 41.1103 3.87414 41.3387 3.63019C41.5711 3.38624 41.6872 3.10163 41.6872 2.77637C41.6872 2.44723 41.5749 2.16069 41.3503 1.91674C41.1258 1.67279 40.845 1.55082 40.5081 1.55082C40.1713 1.55082 39.8886 1.66505 39.6601 1.89351C39.4355 2.12197 39.3233 2.41045 39.3233 2.75894C39.3233 3.10357 39.4375 3.39592 39.6659 3.636C39.8944 3.87607 40.1732 3.99611 40.5023 3.99611Z" fill="#8D541F"/>
</svg>
